HIERARCHY
ROOT Hips
{
	OFFSET 0.053599 88.859886 3.107447
	CHANNELS 6 Xposition Yposition Zposition Zrotation Yrotation Xrotation 
	JOINT Spine
	{
		OFFSET -0.000000 8.814246 -2.080107
		CHANNELS 3 Zrotation Yrotation Xrotation
		JOINT Spine1
		{
			OFFSET 0.000000 8.844141 0.000000
			CHANNELS 3 Zrotation Yrotation Xrotation
			JOINT Spine2
			{
				OFFSET -0.000000 11.682268 0.000000
				CHANNELS 3 Zrotation Yrotation Xrotation
				JOINT Spine3
				{
					OFFSET 0.000000 11.746700 0.000000
					CHANNELS 3 Zrotation Yrotation Xrotation
					JOINT Neck
					{
						OFFSET -0.000000 17.658264 -0.000000
						CHANNELS 3 Zrotation Yrotation Xrotation
						JOINT Neck1
						{
							OFFSET -0.000000 5.101515 -0.000000
							CHANNELS 3 Zrotation Yrotation Xrotation
							JOINT Head
							{
								OFFSET 0.000000 5.101515 0.000000
								CHANNELS 3 Zrotation Yrotation Xrotation
								JOINT HeadEnd
								{
									OFFSET 0.000000 11.655085 0.000000
									CHANNELS 3 Zrotation Yrotation Xrotation
									End Site
									{
										OFFSET 0.000000 0.000000 0.000000
									}
								}
							}
						}
					}
					JOINT RightShoulder
					{
						OFFSET -2.625389 11.175210 0.000000
						CHANNELS 3 Zrotation Yrotation Xrotation
						JOINT RightArm
						{
							OFFSET -0.000000 10.434715 -0.000000
							CHANNELS 3 Zrotation Yrotation Xrotation
							JOINT RightForeArm
							{
								OFFSET -0.000000 29.628420 0.000000
								CHANNELS 3 Zrotation Yrotation Xrotation
								JOINT RightHand
								{
									OFFSET -0.000000 22.857611 0.000000
									CHANNELS 3 Zrotation Yrotation Xrotation
									JOINT RightHandThumb1
									{
										OFFSET -2.867323 3.959563 2.944291
										CHANNELS 3 Zrotation Yrotation Xrotation
										JOINT RightHandThumb2
										{
											OFFSET 0.000000 3.350399 0.000000
											CHANNELS 3 Zrotation Yrotation Xrotation
											JOINT RightHandThumb3
											{
												OFFSET 0.000000 3.756509 -0.000000
												CHANNELS 3 Zrotation Yrotation Xrotation
												JOINT RightHandThumb4
												{
													OFFSET 0.000000 3.147345 0.000000
													CHANNELS 3 Zrotation Yrotation Xrotation
													End Site
													{
														OFFSET 0.000000 0.000000 0.000000
													}
												}
											}
										}
									}
									JOINT RightHandIndex1
									{
										OFFSET -0.086752 10.030893 2.345280
										CHANNELS 3 Zrotation Yrotation Xrotation
										JOINT RightHandIndex2
										{
											OFFSET -0.000000 4.061090 0.000000
											CHANNELS 3 Zrotation Yrotation Xrotation
											JOINT RightHandIndex3
											{
												OFFSET -0.000000 3.248873 0.000000
												CHANNELS 3 Zrotation Yrotation Xrotation
												JOINT RightHandIndex4
												{
													OFFSET 0.000000 2.639709 -0.000000
													CHANNELS 3 Zrotation Yrotation Xrotation
													End Site
													{
														OFFSET 0.000000 0.000000 0.000000
													}
												}
											}
										}
									}
									JOINT RightHandMiddle1
									{
										OFFSET 0.104102 9.502952 0.006768
										CHANNELS 3 Zrotation Yrotation Xrotation
										JOINT RightHandMiddle2
										{
											OFFSET 0.000000 4.568727 0.000000
											CHANNELS 3 Zrotation Yrotation Xrotation
											JOINT RightHandMiddle3
											{
												OFFSET 0.000000 3.654981 -0.000000
												CHANNELS 3 Zrotation Yrotation Xrotation
												JOINT RightHandMiddle4
												{
													OFFSET -0.000000 2.741236 -0.000000
													CHANNELS 3 Zrotation Yrotation Xrotation
													End Site
													{
														OFFSET 0.000000 0.000000 0.000000
													}
												}
											}
										}
									}
									JOINT RightHandRing1
									{
										OFFSET 0.086752 8.921708 -2.267442
										CHANNELS 3 Zrotation Yrotation Xrotation
										JOINT RightHandRing2
										{
											OFFSET -0.000000 4.061090 0.000000
											CHANNELS 3 Zrotation Yrotation Xrotation
											JOINT RightHandRing3
											{
												OFFSET 0.000000 3.654981 -0.000000
												CHANNELS 3 Zrotation Yrotation Xrotation
												JOINT RightHandRing4
												{
													OFFSET 0.000000 2.741236 -0.000000
													CHANNELS 3 Zrotation Yrotation Xrotation
													End Site
													{
														OFFSET 0.000000 0.000000 0.000000
													}
												}
											}
										}
									}
									JOINT RightHandPinky1
									{
										OFFSET -0.173504 7.976997 -4.467199
										CHANNELS 3 Zrotation Yrotation Xrotation
										JOINT RightHandPinky2
										{
											OFFSET 0.000000 3.350399 -0.000000
											CHANNELS 3 Zrotation Yrotation Xrotation
											JOINT RightHandPinky3
											{
												OFFSET -0.000000 2.842763 0.000000
												CHANNELS 3 Zrotation Yrotation Xrotation
												JOINT RightHandPinky4
												{
													OFFSET -0.000000 2.639709 0.000000
													CHANNELS 3 Zrotation Yrotation Xrotation
													End Site
													{
														OFFSET 0.000000 0.000000 0.000000
													}
												}
											}
										}
									}
									JOINT RightForeArmEnd
									{
										OFFSET 0.000000 0.000000 0.000000
										CHANNELS 3 Zrotation Yrotation Xrotation
										End Site
										{
											OFFSET 0.000000 0.000000 0.000000
										}
									}
								}
								JOINT RightArmEnd
								{
									OFFSET 0.000000 0.000000 0.000000
									CHANNELS 3 Zrotation Yrotation Xrotation
									End Site
									{
										OFFSET 0.000000 0.000000 0.000000
									}
								}
							}
						}
					}
					JOINT LeftShoulder
					{
						OFFSET 2.625389 11.175210 0.000000
						CHANNELS 3 Zrotation Yrotation Xrotation
						JOINT LeftArm
						{
							OFFSET 0.000000 10.813635 -0.000000
							CHANNELS 3 Zrotation Yrotation Xrotation
							JOINT LeftForeArm
							{
								OFFSET 0.000000 28.724781 0.000000
								CHANNELS 3 Zrotation Yrotation Xrotation
								JOINT LeftHand
								{
									OFFSET 0.644384 25.716167 -0.328871
									CHANNELS 3 Zrotation Yrotation Xrotation
									JOINT LeftHandThumb1
									{
										OFFSET 2.867323 3.959563 2.944291
										CHANNELS 3 Zrotation Yrotation Xrotation
										JOINT LeftHandThumb2
										{
											OFFSET 0.000000 3.350399 0.000000
											CHANNELS 3 Zrotation Yrotation Xrotation
											JOINT LeftHandThumb3
											{
												OFFSET -0.000000 3.756509 0.000000
												CHANNELS 3 Zrotation Yrotation Xrotation
												JOINT LeftHandThumb4
												{
													OFFSET -0.000000 3.100000 0.000000
													CHANNELS 3 Zrotation Yrotation Xrotation
													End Site
													{
														OFFSET 0.000000 0.000000 0.000000
													}
												}
											}
										}
									}
									JOINT LeftHandIndex1
									{
										OFFSET 0.086752 10.030893 2.345280
										CHANNELS 3 Zrotation Yrotation Xrotation
										JOINT LeftHandIndex2
										{
											OFFSET -0.000000 4.061090 -0.000000
											CHANNELS 3 Zrotation Yrotation Xrotation
											JOINT LeftHandIndex3
											{
												OFFSET 0.000000 3.248873 -0.000000
												CHANNELS 3 Zrotation Yrotation Xrotation
												JOINT LeftHandIndex4
												{
													OFFSET 0.000000 2.639709 -0.000000
													CHANNELS 3 Zrotation Yrotation Xrotation
													End Site
													{
														OFFSET 0.000000 0.000000 0.000000
													}
												}
											}
										}
									}
									JOINT LeftHandMiddle1
									{
										OFFSET -0.104102 9.502952 0.006768
										CHANNELS 3 Zrotation Yrotation Xrotation
										JOINT LeftHandMiddle2
										{
											OFFSET -0.000000 4.568727 -0.000000
											CHANNELS 3 Zrotation Yrotation Xrotation
											JOINT LeftHandMiddle3
											{
												OFFSET 0.000000 3.654981 0.000000
												CHANNELS 3 Zrotation Yrotation Xrotation
												JOINT LeftHandMiddle4
												{
													OFFSET 0.000000 2.741236 -0.000000
													CHANNELS 3 Zrotation Yrotation Xrotation
													End Site
													{
														OFFSET 0.000000 0.000000 0.000000
													}
												}
											}
										}
									}
									JOINT LeftHandRing1
									{
										OFFSET -0.086752 8.921708 -2.267442
										CHANNELS 3 Zrotation Yrotation Xrotation
										JOINT LeftHandRing2
										{
											OFFSET 0.000000 4.061090 0.000000
											CHANNELS 3 Zrotation Yrotation Xrotation
											JOINT LeftHandRing3
											{
												OFFSET 0.000000 3.654981 0.000000
												CHANNELS 3 Zrotation Yrotation Xrotation
												JOINT LeftHandRing4
												{
													OFFSET 0.000000 2.741236 0.000000
													CHANNELS 3 Zrotation Yrotation Xrotation
													End Site
													{
														OFFSET 0.000000 0.000000 0.000000
													}
												}
											}
										}
									}
									JOINT LeftHandPinky1
									{
										OFFSET 0.173504 7.976997 -4.467199
										CHANNELS 3 Zrotation Yrotation Xrotation
										JOINT LeftHandPinky2
										{
											OFFSET -0.000000 3.350399 -0.000000
											CHANNELS 3 Zrotation Yrotation Xrotation
											JOINT LeftHandPinky3
											{
												OFFSET 0.000000 2.842763 0.000000
												CHANNELS 3 Zrotation Yrotation Xrotation
												JOINT LeftHandPinky4
												{
													OFFSET -0.000000 2.639709 -0.000000
													CHANNELS 3 Zrotation Yrotation Xrotation
													End Site
													{
														OFFSET 0.000000 0.000000 0.000000
													}
												}
											}
										}
									}
									JOINT LeftForeArmEnd
									{
										OFFSET 0.000000 0.000000 0.000000
										CHANNELS 3 Zrotation Yrotation Xrotation
										End Site
										{
											OFFSET 0.000000 0.000000 0.000000
										}
									}
								}
								JOINT LeftArmEnd
								{
									OFFSET 0.000000 0.000000 0.000000
									CHANNELS 3 Zrotation Yrotation Xrotation
									End Site
									{
										OFFSET 0.000000 0.000000 0.000000
									}
								}
							}
						}
					}
				}
			}
		}
	}
	JOINT RightUpLeg
	{
		OFFSET -11.289943 0.000000 0.000000
		CHANNELS 3 Zrotation Yrotation Xrotation
		JOINT RightLeg
		{
			OFFSET 0.000000 -38.200325 0.000000
			CHANNELS 3 Zrotation Yrotation Xrotation
			JOINT RightFoot
			{
				OFFSET -0.000000 -39.900856 -0.000000
				CHANNELS 3 Zrotation Yrotation Xrotation
				JOINT RightToeBase
				{
					OFFSET 0.000000 0.000000 15.261641
					CHANNELS 3 Zrotation Yrotation Xrotation
					JOINT RightToeBaseEnd
					{
						OFFSET 0.000000 0.000000 7.370709
						CHANNELS 3 Zrotation Yrotation Xrotation
						End Site
						{
							OFFSET 0.000000 0.000000 0.000000
						}
					}
				}
				JOINT RightLegEnd
				{
					OFFSET 0.000000 0.000000 0.000000
					CHANNELS 3 Zrotation Yrotation Xrotation
					End Site
					{
						OFFSET 0.000000 0.000000 0.000000
					}
				}
			}
			JOINT RightUpLegEnd
			{
				OFFSET 0.000000 0.000000 0.000000
				CHANNELS 3 Zrotation Yrotation Xrotation
				End Site
				{
					OFFSET 0.000000 0.000000 0.000000
				}
			}
		}
	}
	JOINT LeftUpLeg
	{
		OFFSET 11.315661 -0.000000 0.000000
		CHANNELS 3 Zrotation Yrotation Xrotation
		JOINT LeftLeg
		{
			OFFSET -0.000000 -38.200325 -0.000000
			CHANNELS 3 Zrotation Yrotation Xrotation
			JOINT LeftFoot
			{
				OFFSET 0.000000 -39.900856 -0.000000
				CHANNELS 3 Zrotation Yrotation Xrotation
				JOINT LeftToeBase
				{
					OFFSET -0.000000 -0.000000 15.261641
					CHANNELS 3 Zrotation Yrotation Xrotation
					JOINT LeftToeBaseEnd
					{
						OFFSET 0.000000 -0.000000 7.539996
						CHANNELS 3 Zrotation Yrotation Xrotation
						End Site
						{
							OFFSET 0.000000 0.000000 0.000000
						}
					}
				}
				JOINT LeftLegEnd
				{
					OFFSET 0.000000 0.000000 0.000000
					CHANNELS 3 Zrotation Yrotation Xrotation
					End Site
					{
						OFFSET 0.000000 0.000000 0.000000
					}
				}
			}
			JOINT LeftUpLegEnd
			{
				OFFSET 0.000000 0.000000 0.000000
				CHANNELS 3 Zrotation Yrotation Xrotation
				End Site
				{
					OFFSET 0.000000 0.000000 0.000000
				}
			}
		}
	}
}
MOTION
Frames: 5
Frame Time: 0.016667
0.053599 88.859886 3.107447 0.490481 0.055862 -6.497332 0.023754 -0.000539 5.886370 -1.012250 0.067046 0.861970 0.478071 -2.416792 3.829567 0.155030 -0.780500 1.929224 2.330515 0.848112 5.016849 0.371683 2.117863 -3.221864 -0.714533 -0.852149 -18.222401 0.000000 0.000000 0.000000 92.418694 -0.394880 9.707912 65.456573 -33.431271 5.091406 -0.130291 12.440493 22.353239 6.882370 13.743960 -6.458578 19.861429 30.097643 62.040974 -8.462701 -12.164348 -20.450144 -6.325801 -8.139122 -14.332924 0.000000 0.000000 0.000000 12.621688 -10.712396 0.231899 8.905269 0.376633 1.323778 8.902945 -0.111869 1.243825 0.000000 0.000000 0.000000 11.194713 -5.446730 -1.239449 7.889823 0.455857 0.481039 7.889222 -0.037052 0.412494 0.000000 0.000000 0.000000 10.912717 2.564455 -1.535874 7.825817 -0.947299 -0.611652 7.824722 0.070320 -0.477096 0.000000 0.000000 0.000000 9.631022 11.185607 -2.805182 7.161172 -1.900893 -1.652070 7.157181 0.085565 -1.400512 0.000000 0.000000 0.000000 0.000000 0.000000 0.000000 0.000000 0.000000 0.000000 -90.370071 0.051974 5.208683 -71.842018 19.306828 -7.574249 -0.664994 -8.642401 40.885647 -0.139946 -25.486511 -15.477552 -20.250540 -29.996990 61.691063 8.807010 12.918287 -21.553112 6.618044 8.635277 -15.110494 0.000000 0.000000 0.000000 -16.168392 -5.636370 -1.918335 -11.569428 0.324957 -1.715407 -11.569072 -0.164917 -1.615128 0.000000 0.000000 0.000000 -15.643335 -0.758781 -1.694552 -11.169063 0.440303 -0.678956 -11.168735 -0.058746 -0.582722 0.000000 0.000000 0.000000 -18.003109 7.607869 -1.025503 -12.703986 -0.874371 0.992852 -12.702737 0.099213 0.772902 0.000000 0.000000 0.000000 -18.852142 16.262062 -0.245862 -13.102126 -1.657223 2.980032 -13.096694 0.281077 2.526406 0.000000 0.000000 0.000000 0.000000 0.000000 0.000000 0.000000 0.000000 0.000000 -1.045058 -10.518975 11.869204 -0.078405 -0.635030 3.758801 -2.197730 -7.901679 18.681496 -0.890004 0.828132 -18.870453 0.000000 0.000000 0.000000 0.000000 0.000000 0.000000 0.000000 0.000000 0.000000 -1.784023 -6.543907 7.474547 0.053202 0.398207 7.545935 3.843466 -1.785134 17.966772 0.194973 -0.390531 -20.817129 0.000000 0.000000 0.000000 0.000000 0.000000 0.000000 0.000000 0.000000 0.000000 
0.114259 88.926270 2.917109 -0.278557 -0.309519 -7.349413 1.307440 -0.181662 6.636868 -0.948720 0.114476 2.715581 0.736482 -1.601240 1.537428 -0.902929 -0.169154 3.127384 1.248935 2.303487 3.180134 0.364456 2.953161 -3.771017 -1.059515 -0.616404 -18.467056 0.000000 0.000000 0.000000 92.932251 -0.457480 9.606168 64.938728 -32.201813 4.139177 -0.122176 13.096165 23.159512 6.801628 13.039389 -6.994915 19.865093 30.099487 62.090965 -8.414561 -12.059747 -20.400644 -6.280776 -8.080453 -14.250046 0.000000 0.000000 0.000000 11.972665 -10.743818 -0.316898 9.012716 0.334694 1.327201 8.799522 -0.106218 1.262918 0.000000 0.000000 0.000000 10.813427 -5.346889 -1.107136 7.665987 0.422609 0.516894 8.034533 -0.052294 0.442209 0.000000 0.000000 0.000000 10.251190 2.586731 -0.841790 7.455008 -0.889806 -0.851427 7.499538 0.066938 -0.625543 0.000000 0.000000 0.000000 9.545237 11.060987 -1.769866 7.133619 -1.650366 -2.428795 6.720905 0.276712 -2.050966 0.000000 0.000000 0.000000 0.000000 0.000000 0.000000 0.000000 0.000000 0.000000 -89.882851 0.138532 5.986814 -71.738159 19.512671 -6.587706 -1.232584 -9.128618 40.456024 2.003999 -23.107407 -15.992033 -20.235037 -29.967478 61.617481 8.880982 12.925291 -21.651892 6.646137 8.651302 -15.132579 0.000000 0.000000 0.000000 -17.216805 -5.480711 -0.069709 -10.971128 0.293089 -1.399812 -11.086881 -0.168860 -1.290919 0.000000 0.000000 0.000000 -16.553062 -0.500744 -0.867102 -10.850064 0.408063 -0.591887 -10.775904 -0.066354 -0.475585 0.000000 0.000000 0.000000 -18.701361 7.523876 -0.730794 -12.343683 -0.868717 0.850846 -12.321946 0.083621 0.661002 0.000000 0.000000 0.000000 -19.932932 15.921887 -1.168667 -12.906123 -1.550034 2.653647 -12.760173 0.344182 2.255723 0.000000 0.000000 0.000000 0.000000 0.000000 0.000000 0.000000 0.000000 0.000000 0.120765 -9.183432 11.017975 -0.048489 -0.639271 6.148947 -2.886299 -8.975909 17.715410 -0.801727 0.757984 -19.014595 0.000000 0.000000 0.000000 0.000000 0.000000 0.000000 0.000000 0.000000 0.000000 -1.533776 -6.360508 7.206447 0.057813 0.370779 8.542345 3.710657 -0.514416 16.947115 0.392923 -0.474748 -20.491211 0.000000 0.000000 0.000000 0.000000 0.000000 0.000000 0.000000 0.000000 0.000000 
0.121869 88.914177 2.910578 -0.305569 -0.378340 -7.435976 1.310616 -0.167451 6.673433 -0.880034 0.099870 2.706095 0.743915 -1.571074 1.625467 -0.889324 -0.141503 3.190201 1.226789 2.200889 3.130126 0.357361 2.871681 -3.749958 -1.073465 -0.653787 -18.446917 0.000000 0.000000 0.000000 92.798889 -0.461488 9.535761 64.890816 -32.501476 4.202055 -0.065785 13.156351 23.179604 6.638095 12.536204 -7.030303 19.845991 30.103962 62.097118 -8.409331 -12.037583 -20.370253 -6.277094 -8.061350 -14.227403 0.000000 0.000000 0.000000 11.964798 -10.741576 -0.371056 9.067212 0.339826 1.302872 8.871234 -0.099057 1.239676 0.000000 0.000000 0.000000 10.840894 -5.339988 -1.107905 7.732144 0.423101 0.506886 8.101731 -0.050579 0.434770 0.000000 0.000000 0.000000 10.280346 2.571319 -0.802749 7.555010 -0.890668 -0.840936 7.600269 0.063891 -0.614596 0.000000 0.000000 0.000000 9.512380 11.036752 -1.648989 7.145824 -1.655043 -2.412960 6.756121 0.269220 -2.027610 0.000000 0.000000 0.000000 0.000000 0.000000 0.000000 0.000000 0.000000 0.000000 -89.828751 0.151050 6.002512 -71.932709 19.629099 -6.637700 -1.235731 -9.204878 40.539341 2.212416 -22.704067 -15.976767 -20.226664 -29.972805 61.628098 8.864061 12.905928 -21.623524 6.634975 8.634172 -15.106463 0.000000 0.000000 0.000000 -17.137541 -5.513063 -0.141376 -11.050629 0.293575 -1.389573 -11.137913 -0.166039 -1.284083 0.000000 0.000000 0.000000 -16.481665 -0.520543 -0.916329 -10.926275 0.407690 -0.591954 -10.854589 -0.067029 -0.476378 0.000000 0.000000 0.000000 -18.695648 7.516306 -0.797569 -12.420292 -0.867638 0.853514 -12.382672 0.083790 0.662541 0.000000 0.000000 0.000000 -19.933481 15.910776 -1.248659 -12.926185 -1.550435 2.646312 -12.754456 0.342788 2.262300 0.000000 0.000000 0.000000 0.000000 0.000000 0.000000 0.000000 0.000000 0.000000 0.138841 -9.106589 11.142452 -0.048717 -0.641541 6.051000 -2.837184 -8.994629 17.762341 -0.809434 0.757963 -19.016317 0.000000 0.000000 0.000000 0.000000 0.000000 0.000000 0.000000 0.000000 0.000000 -1.498637 -6.303002 7.206685 0.056226 0.358418 8.650418 3.708614 -0.493695 16.926868 0.372811 -0.476386 -20.514645 0.000000 0.000000 0.000000 0.000000 0.000000 0.000000 0.000000 0.000000 0.000000 
0.127536 88.909149 2.924761 -0.320559 -0.438616 -7.553202 1.320798 -0.159446 6.686750 -0.858262 0.099013 2.705370 0.763496 -1.550347 1.693152 -0.887442 -0.106758 3.280774 1.201156 2.134240 3.142262 0.366326 2.809210 -3.691851 -1.065380 -0.667081 -18.456108 0.000000 0.000000 0.000000 92.698471 -0.467068 9.483748 64.892792 -32.466995 4.134482 -0.037881 13.214898 23.302290 6.706696 12.049126 -7.068557 19.851433 30.105410 62.089314 -8.412560 -12.061914 -20.398014 -6.282473 -8.071114 -14.245819 0.000000 0.000000 0.000000 12.043189 -10.770202 -0.390919 9.188847 0.347184 1.271601 9.003831 -0.091504 1.211021 0.000000 0.000000 0.000000 10.935917 -5.353396 -1.091221 7.856788 0.425872 0.493789 8.221439 -0.047832 0.424470 0.000000 0.000000 0.000000 10.353438 2.565002 -0.735927 7.681422 -0.893646 -0.827949 7.724053 0.061036 -0.602816 0.000000 0.000000 0.000000 9.520643 11.042169 -1.499431 7.198573 -1.661976 -2.395236 6.826889 0.263472 -2.010838 0.000000 0.000000 0.000000 0.000000 0.000000 0.000000 0.000000 0.000000 0.000000 -89.797508 0.166057 5.995360 -72.073235 19.667036 -6.661829 -1.205831 -9.259785 40.578529 2.258813 -22.302568 -15.871308 -20.238096 -29.973915 61.624039 8.862580 12.909701 -21.644400 6.636158 8.639633 -15.113656 0.000000 0.000000 0.000000 -17.178585 -5.531183 -0.140324 -11.109229 0.296773 -1.370652 -11.172353 -0.162313 -1.268964 0.000000 0.000000 0.000000 -16.515545 -0.525200 -0.902349 -10.981012 0.408853 -0.585589 -10.920265 -0.066597 -0.471099 0.000000 0.000000 0.000000 -18.780890 7.522749 -0.759588 -12.471618 -0.868980 0.851685 -12.433262 0.082692 0.659636 0.000000 0.000000 0.000000 -20.049955 15.906603 -1.219300 -12.955617 -1.552766 2.644179 -12.761005 0.343416 2.268361 0.000000 0.000000 0.000000 0.000000 0.000000 0.000000 0.000000 0.000000 0.000000 0.136563 -9.019355 11.293417 -0.048621 -0.639542 6.026786 -2.792259 -9.009537 17.794804 -0.813533 0.758559 -19.029341 0.000000 0.000000 0.000000 0.000000 0.000000 0.000000 0.000000 0.000000 0.000000 -1.480933 -6.272655 7.238556 0.055726 0.355388 8.773262 3.705841 -0.480334 16.892834 0.363084 -0.479948 -20.523470 0.000000 0.000000 0.000000 0.000000 0.000000 0.000000 0.000000 0.000000 0.000000 
0.136227 88.905968 2.940565 -0.337824 -0.488603 -7.669168 1.338237 -0.154804 6.696414 -0.846455 0.099028 2.702551 0.783604 -1.518985 1.759449 -0.886289 -0.075824 3.357878 1.142781 2.119144 3.210251 0.376981 2.772922 -3.617692 -1.049546 -0.672334 -18.499302 0.000000 0.000000 0.000000 92.646179 -0.463909 9.457302 64.980370 -32.329956 4.007924 -0.019052 13.329291 23.409088 6.754564 11.651064 -7.066131 19.861050 30.104395 62.074642 -8.422628 -12.095376 -20.437183 -6.292940 -8.088820 -14.270252 0.000000 0.000000 0.000000 12.171002 -10.801372 -0.383652 9.296750 0.358658 1.229997 9.121418 -0.079641 1.174821 0.000000 0.000000 0.000000 11.079743 -5.375484 -1.055175 7.968460 0.430955 0.476005 8.324617 -0.043346 0.410574 0.000000 0.000000 0.000000 10.485362 2.548065 -0.639989 7.795574 -0.899628 -0.805999 7.831304 0.055865 -0.585138 0.000000 0.000000 0.000000 9.584881 11.038190 -1.326133 7.259492 -1.678508 -2.346672 6.896631 0.249147 -1.970391 0.000000 0.000000 0.000000 0.000000 0.000000 0.000000 0.000000 0.000000 0.000000 -89.790558 0.170041 5.983286 -72.111259 19.688025 -6.641366 -1.180212 -9.296047 40.647709 2.126370 -21.941820 -15.765273 -20.241026 -29.974222 61.623348 8.867406 12.900118 -21.648863 6.635624 8.633485 -15.112105 0.000000 0.000000 0.000000 -17.227253 -5.535893 -0.118827 -11.125326 0.309108 -1.321031 -11.172878 -0.149419 -1.226183 0.000000 0.000000 0.000000 -16.566589 -0.522852 -0.865384 -10.990083 0.414123 -0.565851 -10.945745 -0.062484 -0.454955 0.000000 0.000000 0.000000 -18.863817 7.524056 -0.687606 -12.490722 -0.876064 0.832210 -12.445712 0.077111 0.644146 0.000000 0.000000 0.000000 -20.173010 15.891808 -1.158726 -12.965247 -1.571318 2.591075 -12.750141 0.328744 2.231391 0.000000 0.000000 0.000000 0.000000 0.000000 0.000000 0.000000 0.000000 0.000000 0.130035 -8.929493 11.437584 -0.048709 -0.636565 6.026574 -2.755754 -9.000554 17.821417 -0.814956 0.756053 -19.045748 0.000000 0.000000 0.000000 0.000000 0.000000 0.000000 0.000000 0.000000 0.000000 -1.471973 -6.269263 7.276213 0.055256 0.350634 8.886687 3.704213 -0.454247 16.872282 0.355780 -0.481038 -20.532520 0.000000 0.000000 0.000000 0.000000 0.000000 0.000000 0.000000 0.000000 0.000000 
